<svg width="103" height="130" viewBox="0 0 103 130" fill="none" xmlns="http://www.w3.org/2000/svg">
<path d="M98.5833 97.9333C97.5 90.1333 91.8667 83.6333 84.2833 81.6833L64.35 76.4833L63.7 71.7167L85.15 77.35C83.85 62.4 81.9 39.4333 81.9 32.5C81.9 10.1833 64.1333 0 51.5667 0C39 0 21.2333 10.1833 21.2333 32.5C21.2333 39.4333 19.2833 62.4 17.9833 77.35L39.4333 71.7167L38.7833 76.4833L18.85 81.6833C11.2667 83.6333 5.63333 90.1333 4.55 97.9333L0 130H102.917L98.5833 97.9333ZM33.5833 41.1667V32.5C46.5833 32.0667 55.25 27.3 58.9333 24.9167C60.45 27.0833 63.9167 30.55 68.25 32.0667V41.1667C68.25 48.75 65.2167 55.9 59.3667 60.8833L57.4167 62.8333C55.9 64.1333 53.95 65 52 65H51.35C49.1833 65 47.2333 64.35 45.7167 62.8333L43.1167 60.8833C37.2667 55.9 33.5833 48.75 33.5833 41.1667ZM60.0167 76.9167C54.1667 81.0333 48.75 81.0333 43.1167 76.9167L44.4167 67.3833C46.3667 68.6833 48.75 69.3333 51.1333 69.3333H51.7833C54.1667 69.3333 56.55 68.6833 58.5 67.3833L60.0167 76.9167ZM56.55 119.6L53.7333 122.85L38.7833 110.5L53.7333 97.9333L56.55 101.183L45.7167 110.5L56.55 119.6ZM61.5333 124.15L57.4167 122.85L66.0833 96.85L70.2 98.15L61.5333 124.15ZM73.8833 123.067L71.0667 119.817L82.1167 110.717L71.0667 101.617L73.8833 98.3667L88.8333 110.933L73.8833 123.067Z" fill="black"/>
</svg>
