<svg width="126" height="130" viewBox="0 0 126 130" fill="none" xmlns="http://www.w3.org/2000/svg">
<path d="M84.4468 49.9487H80.9836C77.1209 53.545 70.8607 55.9426 63.6681 55.9426C56.4754 55.9426 50.2152 53.545 46.3525 49.9487H43.8218C31.1681 49.9487 20.9119 57.6741 20.9119 67.2643H106.424C106.424 57.6741 96.5677 49.9487 84.4468 49.9487Z" fill="black"/>
<path d="M63.668 0C49.5492 0 37.9611 11.5881 37.9611 25.707C37.9611 39.8258 49.5492 51.4139 63.668 51.4139C77.7869 51.4139 89.375 39.8258 89.375 25.707C89.375 11.5881 77.7869 0 63.668 0ZM63.668 45.6865C52.6127 45.6865 43.6885 36.7623 43.6885 25.707C43.6885 23.9754 43.9549 22.377 44.3545 20.7787C46.752 21.9775 51.0143 23.5758 55.8094 23.5758C59.2725 23.5758 63.002 22.7766 66.5984 20.2459C66.9979 19.9795 75.7889 13.7193 82.7152 19.9795C83.2479 21.8443 83.5143 23.709 83.5143 25.707C83.6475 36.7623 74.7234 45.6865 63.668 45.6865Z" fill="black"/>
<path d="M124.006 127.203H109.887C110.82 126.004 111.352 124.539 111.352 122.941V76.9876C111.352 73.1249 108.156 69.9282 104.293 69.9282H22.9098C19.0471 69.9282 15.8504 73.1249 15.8504 76.9876V122.941C15.8504 124.539 16.3832 126.004 17.3156 127.203H1.33197C0.532787 127.203 0 127.869 0 128.535V128.668C0 129.467 0.665984 130 1.33197 130H123.873C124.672 130 125.205 129.334 125.205 128.668V128.535C125.338 127.736 124.672 127.203 124.006 127.203ZM37.6947 87.2438H51.9467V101.496H37.6947V87.2438ZM90.8402 112.818H37.6947V109.088H90.8402V112.818ZM90.8402 101.496H59.0061V97.7663H90.8402V101.496ZM90.8402 90.9733H59.0061V87.2438H90.8402V90.9733Z" fill="black"/>
</svg>
