<svg width="170" height="130" viewBox="0 0 86 66" fill="none" xmlns="http://www.w3.org/2000/svg">
<path d="M5 0C2.2473 0 0 2.2473 0 5V61C0 63.7527 2.2473 66 5 66H81C83.7527 66 86 63.7527 86 61V5C86 2.2473 83.7527 0 81 0H5ZM5 2H81C82.6793 2 84 3.3207 84 5V14H2V5C2 3.3207 3.3207 2 5 2ZM9 5C7.35499 5 6 6.35499 6 8C6 9.64501 7.35499 11 9 11C10.645 11 12 9.64501 12 8C12 6.35499 10.645 5 9 5ZM18 5C16.355 5 15 6.35499 15 8C15 9.64501 16.355 11 18 11C19.645 11 21 9.64501 21 8C21 6.35499 19.645 5 18 5ZM27 5C25.355 5 24 6.35499 24 8C24 9.64501 25.355 11 27 11C28.645 11 30 9.64501 30 8C30 6.35499 28.645 5 27 5ZM9 7C9.56413 7 10 7.43587 10 8C10 8.56413 9.56413 9 9 9C8.43587 9 8 8.56413 8 8C8 7.43587 8.43587 7 9 7ZM18 7C18.5641 7 19 7.43587 19 8C19 8.56413 18.5641 9 18 9C17.4359 9 17 8.56413 17 8C17 7.43587 17.4359 7 18 7ZM27 7C27.5641 7 28 7.43587 28 8C28 8.56413 27.5641 9 27 9C26.4359 9 26 8.56413 26 8C26 7.43587 26.4359 7 27 7ZM2 16H84V61C84 62.6793 82.6793 64 81 64H5C3.3207 64 2 62.6793 2 61V16ZM8.8125 22C8.58093 22.0442 8.37241 22.1688 8.22375 22.3517C8.07509 22.5347 7.99585 22.7643 8 23V57C8.00003 57.2652 8.10539 57.5195 8.29292 57.7071C8.48045 57.8946 8.73479 58 9 58H49C49.2652 58 49.5195 57.8946 49.7071 57.7071C49.8946 57.5195 50 57.2652 50 57V23C50 22.7348 49.8946 22.4805 49.7071 22.2929C49.5195 22.1054 49.2652 22 49 22H9C8.96877 21.9985 8.93748 21.9985 8.90625 22C8.87502 21.9985 8.84373 21.9985 8.8125 22ZM56.8438 22C56.6064 22.0375 56.3906 22.1593 56.2357 22.3429C56.0807 22.5265 55.9971 22.7598 56 23V36C56 36.2652 56.1054 36.5195 56.2929 36.7071C56.4805 36.8946 56.7348 37 57 37H77C77.2652 37 77.5195 36.8946 77.7071 36.7071C77.8946 36.5195 78 36.2652 78 36V23C78.0011 22.7503 77.9087 22.5092 77.741 22.3241C77.5733 22.139 77.3424 22.0234 77.0938 22C77.0625 21.9985 77.0312 21.9985 77 22H57C56.948 21.9959 56.8958 21.9959 56.8438 22V22ZM10 24H48V56H10V24ZM58 24H76V35H58V24ZM56.8125 42C56.5473 42.0249 56.3028 42.1541 56.1329 42.3592C55.9629 42.5643 55.8814 42.8285 55.9062 43.0938C55.9311 43.359 56.0603 43.6034 56.2654 43.7734C56.4706 43.9434 56.7348 44.0249 57 44H77C77.1325 44.0019 77.2641 43.9774 77.387 43.928C77.51 43.8786 77.6219 43.8052 77.7163 43.7122C77.8107 43.6191 77.8856 43.5082 77.9368 43.386C77.9879 43.2637 78.0142 43.1325 78.0142 43C78.0142 42.8675 77.9879 42.7363 77.9368 42.614C77.8856 42.4918 77.8107 42.3809 77.7163 42.2878C77.6219 42.1948 77.51 42.1214 77.387 42.072C77.2641 42.0226 77.1325 41.9981 77 42H57C56.9688 41.9985 56.9375 41.9985 56.9062 42C56.875 41.9985 56.8437 41.9985 56.8125 42V42ZM56.8125 49C56.5473 49.0249 56.3028 49.1541 56.1329 49.3592C55.9629 49.5643 55.8814 49.8285 55.9062 50.0938C55.9311 50.359 56.0603 50.6034 56.2654 50.7734C56.4706 50.9434 56.7348 51.0249 57 51H77C77.1325 51.0019 77.2641 50.9774 77.387 50.928C77.51 50.8786 77.6219 50.8052 77.7163 50.7122C77.8107 50.6191 77.8856 50.5082 77.9368 50.386C77.9879 50.2637 78.0142 50.1325 78.0142 50C78.0142 49.8675 77.9879 49.7363 77.9368 49.614C77.8856 49.4918 77.8107 49.3809 77.7163 49.2878C77.6219 49.1948 77.51 49.1214 77.387 49.072C77.2641 49.0226 77.1325 48.9981 77 49H57C56.9688 48.9985 56.9375 48.9985 56.9062 49C56.875 48.9985 56.8437 48.9985 56.8125 49V49ZM56.8125 56C56.5473 56.0249 56.3028 56.1541 56.1329 56.3592C55.9629 56.5643 55.8814 56.8285 55.9062 57.0938C55.9311 57.359 56.0603 57.6034 56.2654 57.7734C56.4706 57.9434 56.7348 58.0249 57 58H77C77.1325 58.0019 77.2641 57.9774 77.387 57.928C77.51 57.8786 77.6219 57.8052 77.7163 57.7122C77.8107 57.6191 77.8856 57.5082 77.9368 57.386C77.9879 57.2637 78.0142 57.1325 78.0142 57C78.0142 56.8675 77.9879 56.7363 77.9368 56.614C77.8856 56.4918 77.8107 56.3809 77.7163 56.2878C77.6219 56.1948 77.51 56.1214 77.387 56.072C77.2641 56.0226 77.1325 55.9981 77 56H57C56.9688 55.9985 56.9375 55.9985 56.9062 56C56.875 55.9985 56.8437 55.9985 56.8125 56V56Z" fill="black"/>
</svg>
